<svg width="163" height="53" viewBox="0 0 163 53" fill="none" xmlns="http://www.w3.org/2000/svg">
<path d="M25.3278 41.5252C25.0673 41.6345 24.8164 41.8065 24.5448 41.8428C22.9004 42.0628 21.2548 42.2834 19.603 42.4441C16.9745 42.6999 14.3392 42.8927 11.71 43.1424C9.34428 43.367 6.98523 43.6548 4.6183 43.866C3.91002 43.9292 3.1757 43.8883 2.46985 43.7904C1.17735 43.6111 0.563265 42.8512 0.358981 41.3672C0.0802511 39.3423 -0.0280044 37.3106 0.00607108 35.2695C0.0593668 32.0762 0.0430893 28.881 0.156047 25.6897C0.263459 22.6548 0.51267 19.6246 0.673329 16.5912C0.796898 14.2576 0.877107 11.9221 0.982734 9.58767C1.00794 9.03057 1.04681 8.47355 1.09957 7.91819C1.14315 7.45938 1.34003 7.31823 1.81586 7.19713C3.00539 6.89438 4.20621 7.01599 5.40809 7.05347C6.05666 7.0737 6.70696 7.04035 7.35596 7.05361C8.79382 7.08299 10.2319 7.1133 11.6688 7.16901C12.6085 7.20544 13.5482 7.26839 14.4844 7.35296C15.7497 7.46727 17.0112 7.61862 18.2755 7.74385C18.7538 7.79124 19.2353 7.81025 19.7471 7.8443C19.8208 7.08301 19.8964 6.3654 19.9581 5.64672C20.0177 4.95284 20.3283 4.65048 21.0726 4.69739C21.7327 4.73898 22.3851 4.87968 23.0447 4.93919C23.7289 5.00093 24.4179 5.01431 25.1044 5.0556C25.4189 5.07453 25.7415 5.07557 26.0437 5.14683C26.353 5.21976 26.4445 5.46277 26.4203 5.75869C26.3582 6.5201 26.3031 7.2823 26.2717 8.04516C26.2686 8.12093 26.4461 8.26936 26.5429 8.2717C27.11 8.28535 27.6864 8.32135 28.2444 8.24806C32.0291 7.75106 35.8365 7.80364 39.6419 7.79939C40.0012 7.79898 40.3605 7.84647 40.7198 7.84632C40.8566 7.84627 41.0627 7.81507 41.1194 7.72951C41.7653 6.75499 42.6295 5.90708 42.9687 4.75329C43.2105 3.93099 43.5792 3.14216 43.8692 2.33144C44.1205 1.62878 44.6435 1.20405 45.3748 1.00037C46.5846 0.663355 47.8118 0.452174 49.0856 0.415325C50.9092 0.362535 52.7287 0.197631 54.5518 0.119062C56.1832 0.048765 57.818 -0.0184208 59.4498 0.00460974C60.7895 0.0235165 61.2496 0.448629 61.3972 1.72032C61.5361 2.91656 61.5675 4.12355 61.6577 5.32504C61.6926 5.78959 61.7617 6.25181 61.8108 6.71549C61.842 7.01066 61.9852 7.13529 62.3246 7.12268C63.6245 7.07433 64.9292 6.97839 66.2249 7.03827C67.4191 7.09348 68.6164 7.26981 69.7891 7.49763C70.7476 7.68383 71.481 8.26147 71.9454 9.08223C72.0947 9.34608 72.2665 9.41874 72.5663 9.40031C72.9519 9.37661 73.3424 9.38842 73.7286 9.41391C74.3393 9.45426 74.6995 9.78556 74.7148 10.3202C74.7672 12.1485 74.9172 13.9814 74.8332 15.8046C74.6923 18.862 74.4063 21.9138 74.1677 24.9671C74.0983 25.855 73.9821 26.7397 73.8785 27.7091C74.5505 27.5997 75.1787 27.5328 75.7872 27.3917C77.6543 26.959 79.5037 26.4676 81.2434 25.6779C81.4874 25.5672 81.7022 25.3979 81.9253 25.249C82.1503 25.0988 82.3534 24.9139 82.5931 24.7899C83.4132 24.3655 84.317 24.6666 84.6961 25.4712C84.7347 25.5531 84.7805 25.632 84.8361 25.7373C84.9192 25.7023 85.0039 25.6865 85.0593 25.64C85.4348 25.3249 85.7658 25.5663 86.0583 25.7445C86.3703 25.9346 86.2816 26.2363 86.1666 26.5183C85.8461 27.3045 85.4987 28.0833 85.233 28.8857C85.123 29.2179 85.1433 29.6092 85.195 29.9619C85.2652 30.4404 85.5864 30.6306 86.0913 30.525C86.439 30.4524 86.7942 30.3525 87.1046 30.1938C87.6981 29.8902 88.2672 29.5434 88.8365 29.2C89.1705 28.9985 89.3585 28.7027 89.5127 28.3482C90.3536 26.4153 91.2292 24.4957 92.0948 22.5724C92.1847 22.3725 92.2871 22.1776 92.4163 21.9136C92.2307 21.9248 92.1151 21.9252 92.0015 21.9395C89.5296 22.252 87.052 22.5247 84.553 22.4391C83.7727 22.4123 82.983 22.2849 82.2258 22.1012C81.4777 21.9198 80.8954 21.4437 80.565 20.7815C80.4438 20.5384 80.434 20.1929 80.5104 19.929C80.6318 19.509 80.9873 19.4045 81.3433 19.6864C82.8258 20.8601 84.6287 21.1052 86.4464 21.1525C88.422 21.2038 90.4026 21.078 92.3812 21.0397C92.7742 21.0321 92.9792 20.8685 93.17 20.5425C94.6474 18.0176 96.1315 15.4956 97.6637 12.9997C98.0384 12.3893 98.5856 11.8686 99.0794 11.3274C99.2771 11.1108 99.553 10.9209 99.8846 11.0801C100.207 11.2352 100.249 11.556 100.17 11.8321C99.8499 12.9566 99.5882 14.1074 99.13 15.183C98.4247 16.8391 97.5758 18.4414 96.7874 20.0663C96.7261 20.1926 96.6616 20.3175 96.5561 20.528C97.0608 20.4566 97.4822 20.4157 97.8949 20.3354C99.9635 19.9331 102.029 19.5175 104.098 19.1147C104.412 19.0535 104.637 18.9292 104.82 18.6634C105.933 17.0525 107.466 15.8453 109.159 14.809C111.722 13.2391 114.493 12.1213 117.503 11.549C118.214 11.4136 118.879 11.4534 119.394 12.0372C119.643 12.319 119.7 12.6043 119.563 12.9389C119.234 13.7408 118.578 14.2764 117.863 14.7561C116.192 15.8781 114.317 16.6229 112.393 17.2504C110.816 17.7648 109.211 18.2057 107.611 18.6577C106.781 18.8922 106.436 19.5349 106.122 20.1774C105.676 21.0907 105.874 21.8149 106.793 22.3282C107.811 22.8966 108.908 23.3378 109.957 23.859C110.429 24.0934 110.9 24.3492 111.311 24.6652C111.744 24.9985 111.722 25.2548 111.387 25.6724C110.97 26.192 110.437 26.5586 109.818 26.8528C108.164 27.6382 106.477 28.3784 104.895 29.2781C101.871 30.9977 99.3354 33.2177 97.5269 36.1056C96.9396 37.0434 96.5052 38.0374 96.4914 39.1452C96.467 41.0943 97.5841 42.3243 99.6339 42.6467C101.395 42.9237 103.107 42.6913 104.807 42.2525C107.257 41.6199 109.488 40.5186 111.711 39.4078C115.797 37.3661 119.763 35.1378 123.447 32.4984C124.456 31.7751 125.381 30.9473 126.338 30.1604C126.805 29.7758 127.074 29.2953 127.264 28.7262C127.492 28.0416 127.851 27.3897 128.208 26.7506C128.459 26.3027 128.676 26.2583 129.029 26.4413C129.755 26.8166 129.819 26.9204 129.579 27.4299C129.161 28.3185 128.73 29.202 128.306 30.0882C128.24 30.2256 128.181 30.3658 128.118 30.5047C128.146 30.5251 128.173 30.5455 128.201 30.5659C128.372 30.4151 128.555 30.2742 128.714 30.112C130.107 28.6826 131.367 27.1596 132.406 25.4808C132.538 25.2686 132.639 24.9738 133.008 25.0559C133.487 25.1628 133.949 25.5707 133.891 25.9093C133.79 26.4941 133.68 27.0908 133.459 27.6416C132.429 30.1963 131.362 32.7376 130.305 35.2823C128.454 39.7387 126.912 44.2938 125.385 48.8535C125.092 49.7299 124.823 50.6135 124.541 51.4934C124.517 51.5674 124.503 51.6579 124.449 51.7064C124.324 51.8186 124.178 51.9098 124.04 52.0094C123.955 51.8533 123.77 51.6787 123.799 51.5439C124.036 50.4318 124.254 49.3112 124.588 48.223C125.438 45.4574 126.315 42.6984 127.236 39.9531C128.527 36.1059 129.868 32.2735 131.21 28.3712C131.111 28.4856 131.027 28.5862 130.939 28.6839C130.153 29.5567 129.371 30.4318 128.579 31.299C128.427 31.4651 128.248 31.615 128.06 31.7456C127.521 32.1208 127 31.9275 126.853 31.3093C126.827 31.1986 126.796 31.0887 126.76 30.9478C126.686 30.9826 126.631 30.994 126.598 31.0259C124.536 33.0477 122.129 34.6679 119.666 36.2165C115.751 38.6773 111.691 40.9071 107.444 42.8269C105.433 43.7359 103.332 44.3607 101.072 44.4157C99.7051 44.4489 98.407 44.2298 97.1875 43.6204C95.015 42.5348 94.2601 40.5643 94.5671 38.5084C94.893 36.3259 96.0262 34.4768 97.3951 32.7436C99.7342 29.782 102.82 27.6983 106.349 26.1521C107.013 25.8611 107.699 25.6145 108.375 25.3483C108.55 25.2794 108.727 25.2137 109.017 25.1028C108.718 24.9594 108.518 24.8629 108.318 24.7677C107.383 24.3231 106.397 23.951 105.524 23.4169C104.294 22.665 103.723 21.5764 104.108 20.1648C104.158 19.9822 104.208 19.7998 104.282 19.5314C103.793 19.6406 103.385 19.7345 102.975 19.8228C100.806 20.2899 98.6353 20.7475 96.4717 21.2345C96.2519 21.2839 96.0024 21.4687 95.8919 21.6557C94.8434 23.4311 93.6151 25.0813 92.229 26.6432C91.7962 27.1308 91.5827 27.8133 91.3576 28.4347C90.5623 30.6301 89.7748 32.8288 89.046 35.0441C88.644 36.2662 88.5948 37.5215 89.1027 38.7477C89.1871 38.9516 89.2962 39.1515 89.4261 39.333C89.7708 39.8147 90.0655 39.9076 90.6658 39.7592C90.8589 39.7115 91.0534 39.6686 91.2794 39.616C91.105 40.2164 90.2796 40.6235 89.6581 40.3771C89.2578 40.2183 88.8447 39.9479 88.5942 39.6218C87.6153 38.3474 87.4073 36.8773 87.5736 35.3553C87.7692 33.5657 88.3155 31.8476 88.8681 30.1331C88.9061 30.015 88.9372 29.895 88.8929 29.7189C88.7751 29.7943 88.6614 29.8763 88.5388 29.9441C87.861 30.3187 87.2069 30.7426 86.4959 31.0503C85.3404 31.5502 84.3988 31.151 83.9132 30.0514C83.539 29.2039 83.656 28.3757 83.9851 27.5497C84.038 27.417 84.0962 27.2862 84.1499 27.1538C84.1528 27.1468 84.1367 27.133 84.0902 27.0645C83.7796 27.5177 83.4886 27.9501 83.1893 28.3774C82.7791 28.9629 82.3877 29.5622 81.9388 30.1207C81.6938 30.4257 81.3825 30.7118 81.0391 30.9138C80.1799 31.4191 79.2654 30.9293 79.2987 29.9811C79.3134 29.5611 79.418 29.1293 79.5685 28.7317C79.7431 28.2707 80.0119 27.8409 80.2425 27.3988C80.3056 27.2779 80.3787 27.1616 80.5088 26.9364C79.8048 27.2093 79.2374 27.4693 78.6429 27.6518C77.0807 28.1313 75.5089 28.5839 73.9354 29.0302C73.6386 29.1143 73.645 29.3096 73.6379 29.5124C73.5758 31.2892 73.5429 33.0672 73.4539 34.8427C73.3495 36.9251 73.3221 39.0164 72.798 41.0618C72.6714 41.556 72.4093 41.9513 72.0532 42.3357C70.2328 44.3005 67.7968 44.9775 65.1763 45.2721C62.812 45.538 60.448 45.8135 58.0775 46.0207C56.3701 46.17 54.6526 46.283 52.9389 46.2903C49.7404 46.304 46.539 46.284 43.3435 46.1669C41.8447 46.1119 40.3528 45.8204 38.8649 45.5947C37.8019 45.4334 36.7178 45.298 35.7005 44.9864C32.4064 43.9774 29.4793 42.3716 26.9889 40.083C25.4755 38.6921 24.2736 37.1008 23.4464 35.2843C22.695 33.6343 22.4607 31.8843 22.6791 30.0969C22.8236 28.9137 22.9187 27.7152 23.2017 26.5591C23.6592 24.6898 24.6352 23.017 25.8435 21.4837C27.6365 19.2082 29.6695 17.1168 32.1145 15.456C35.1839 13.3712 38.5868 11.913 42.3531 11.2942C44.726 10.9044 47.1197 10.8844 49.518 10.9929C50.984 11.0593 52.4583 11.0878 53.8769 11.4921C56.3267 12.1904 58.7298 12.9956 60.5744 14.7686C61.3366 15.5014 62.0402 16.2911 62.731 17.085C63.6288 18.1167 64.0546 19.3573 64.332 20.6346C64.5569 21.6698 64.7447 22.718 64.848 23.7691C64.9998 25.3138 64.6277 26.7826 63.8959 28.1716C63.8177 28.32 63.7487 28.4727 63.6414 28.6932C63.8484 28.6766 63.9912 28.6675 64.1333 28.6534C65.8953 28.4794 67.6566 28.2994 69.4193 28.1323C70.3971 28.0396 71.3764 27.9578 72.3566 27.8923C72.7296 27.8673 72.7073 27.6348 72.7295 27.4012C72.8965 25.6478 73.0661 23.8948 73.2333 22.1414C73.3984 20.4106 73.5452 18.678 73.7301 16.949C73.9232 15.1427 73.7337 13.3443 73.6586 11.5431C73.6473 11.2707 73.6332 10.9979 73.639 10.7256C73.6444 10.4704 73.5517 10.355 73.2561 10.3476C72.4749 10.328 72.5116 10.3192 72.4522 11.0323C72.3942 11.7267 72.3181 12.4313 72.1318 13.1026C71.7004 14.6571 70.5712 15.2369 68.8836 14.931C67.166 14.6196 66.7864 13.3912 66.9872 11.9039C67.0046 11.7755 67.0378 11.6489 67.063 11.5214C67.2437 10.6085 67.5419 10.3583 68.5278 10.2056C69.1951 10.1023 69.8544 9.9537 70.5161 9.82027C70.6076 9.80182 70.6923 9.75395 70.8249 9.70219C70.4697 9.07945 69.92 8.74936 69.2356 8.61175C67.464 8.25554 65.6676 8.23492 63.866 8.28711C63.2446 8.3051 62.6213 8.30777 62.0003 8.28426C61.5986 8.26904 61.3407 8.0493 61.1387 7.7065C60.6197 6.82615 60.4588 5.87638 60.4293 4.89591C60.3989 3.88577 60.4564 2.87245 60.1731 1.87864C59.993 1.24705 59.9852 1.19511 59.297 1.20844C57.568 1.24194 55.8301 1.20991 54.1135 1.37084C52.2254 1.54785 50.3431 1.67098 48.4461 1.7155C47.5515 1.73651 46.6584 2.01999 45.7784 2.23404C45.5819 2.28181 45.3709 2.51052 45.2899 2.70181C44.9334 3.54477 44.6676 4.42333 44.279 5.25193C43.9937 5.86032 43.622 6.4492 43.1924 6.97796C42.6675 7.624 42.0563 8.21122 41.4519 8.79617C41.2404 9.00093 40.9551 9.3536 40.6525 8.82812C40.6134 8.76016 40.3955 8.75618 40.2639 8.76564C39.0918 8.84982 37.922 8.97028 36.7485 9.02681C35.6984 9.0774 34.6425 9.02664 33.5928 9.08223C32.2832 9.15159 30.979 9.31239 29.6693 9.38126C28.3718 9.44951 27.0704 9.45889 25.7704 9.48023C25.3841 9.48658 24.995 9.46251 24.6104 9.42414C23.4581 9.30921 22.3084 9.16962 21.1555 9.06038C20.2887 8.97824 19.4191 8.91783 18.5496 8.86564C16.3275 8.73228 14.1045 8.61236 11.8824 8.48001C10.9302 8.42329 9.9799 8.31118 9.02728 8.29362C8.10191 8.27655 7.17495 8.36433 6.24823 8.37689C5.12854 8.39206 4.00458 8.43721 2.90256 8.16974C2.77415 8.13858 2.62969 8.16552 2.4569 8.16552C2.44706 8.28216 2.42847 8.38065 2.43202 8.47842C2.54073 11.4767 2.55354 14.4789 2.28568 17.4659C1.8026 22.8532 1.85425 28.2528 1.69904 33.648C1.64235 35.6185 1.48781 37.5864 1.41428 39.5567C1.3819 40.4246 1.4282 41.2959 1.47084 42.1643C1.47713 42.2925 1.63654 42.485 1.76734 42.5244C2.23658 42.6655 2.72726 42.8556 3.20386 42.8421C4.48771 42.8058 5.76961 42.6855 7.0502 42.5771C8.45516 42.4581 9.85515 42.2776 11.262 42.1896C15.5161 41.9233 19.7726 41.6895 24.028 41.441C24.4383 41.417 24.8477 41.3788 25.2574 41.3472C25.2809 41.4065 25.3043 41.4658 25.3278 41.5252ZM72.4787 29.3286C71.8058 29.4251 71.2099 29.5259 70.6099 29.5941C68.1922 29.8689 65.7747 30.146 63.3538 30.3929C62.8017 30.4492 62.4503 30.6543 62.1067 31.076C60.4572 33.1005 58.232 34.0616 55.5225 34.0234C54.6068 34.0105 53.9698 33.3753 54.1776 32.6696C54.2719 32.3494 54.4869 32.0047 54.7572 31.7972C55.3624 31.3327 55.9823 30.8162 56.694 30.5565C58.2094 30.0036 59.782 29.585 61.3428 29.1477C61.7272 29.04 62.0183 28.9302 62.1695 28.5489C62.4913 27.7376 62.9177 26.9576 63.1763 26.1305C63.5891 24.8101 63.6851 23.4541 63.3257 22.0986C63.2393 21.7727 63.1001 21.4596 62.9967 21.1373C62.5992 19.8982 62.0991 18.71 61.1313 17.7465C60.6663 17.2835 60.2155 16.8077 59.7422 16.3524C57.6043 14.2956 54.8923 13.2651 51.9625 12.7917C50.2711 12.5185 48.5161 12.567 46.7882 12.5225C44.4046 12.461 42.0741 12.7691 39.7971 13.4639C36.9828 14.3226 34.3961 15.5941 32.204 17.4384C30.7279 18.6803 29.3963 20.0969 28.1483 21.5475C26.4134 23.5642 25.1751 25.8373 24.9447 28.4796C24.8334 29.7566 24.6619 31.0557 24.7959 32.3188C25.0278 34.5055 25.9172 36.5107 27.3334 38.2776C28.5987 39.8563 30.1872 41.1141 32.0443 42.0294C35.8165 43.8887 39.8776 44.7489 44.1151 44.9453C45.6493 45.0165 47.1831 45.1658 48.7169 45.1641C52.2601 45.16 55.8036 45.1008 59.3354 44.7814C60.8494 44.6444 62.3759 44.5946 63.8781 44.3875C65.4747 44.1673 67.068 43.9046 68.5889 43.3305C69.8817 42.8424 70.8085 42.047 71.3894 40.8758C71.4756 40.7021 71.6093 40.5279 71.6233 40.3473C71.7593 38.5877 71.8773 36.8269 71.9947 35.0662C72.0749 33.8622 72.1322 32.6567 72.2262 31.4538C72.2795 30.7715 72.386 30.0929 72.4787 29.3286ZM118.428 12.9134C114.534 13.8376 111.125 15.6078 108.068 18.0162C108.182 18.0553 108.281 18.063 108.366 18.0345C109.833 17.5434 111.316 17.088 112.76 16.5424C114.349 15.9416 115.905 15.2577 117.278 14.2731C117.768 13.9224 118.249 13.5515 118.428 12.9134ZM25.0512 6.13526C24.3222 6.08078 23.6222 6.03226 22.923 5.97492C22.4415 5.93544 21.9609 5.88578 21.4803 5.83671C21.2367 5.81182 21.1102 5.91839 21.0963 6.13714C21.0717 6.52526 21.0657 6.91444 21.0378 7.30229C21.0166 7.59752 21.1344 7.75775 21.4574 7.81791C21.9037 7.90109 22.343 8.01795 22.7844 8.12396C23.583 8.31578 24.3887 8.28156 25.1998 8.2443C25.1482 7.5122 25.1 6.82888 25.0512 6.13526ZM68.1912 12.3435C68.1788 13.1834 68.475 13.6607 69.0224 13.7832C69.2505 13.8342 69.4835 13.8691 69.7162 13.8977C70.2221 13.9598 70.5125 13.8388 70.7413 13.417C71.1605 12.644 71.1879 11.7959 71.2104 10.9537C71.2122 10.8843 71.032 10.7374 70.9649 10.7509C70.1686 10.911 69.3757 11.0874 68.5879 11.2808C68.4808 11.3071 68.3525 11.4375 68.3265 11.5403C68.2503 11.8412 68.2209 12.1525 68.1912 12.3435ZM95.0098 20.7611C95.5186 20.6282 96.0111 20.8063 96.2765 20.3354C97.4875 18.1857 98.5735 15.9861 99.2723 13.636C99.4016 13.2013 99.4751 12.7521 99.5743 12.3096C99.5119 12.2885 99.4494 12.2673 99.387 12.2462C97.9474 15.0466 96.5078 17.8471 95.0098 20.7611ZM60.5992 30.998C60.57 30.9555 60.5408 30.9129 60.5116 30.8703C60.0542 30.9493 59.5937 31.015 59.14 31.1098C57.8832 31.3724 56.647 31.6939 55.6006 32.4415C55.4539 32.5463 55.3836 32.7449 55.2779 32.9001C55.463 32.9593 55.6479 33.0693 55.8331 33.0696C57.2251 33.0718 58.4386 32.5574 59.5662 31.8518C59.9446 31.6151 60.2567 31.2853 60.5992 30.998ZM95.6528 21.4186C94.9911 21.4487 94.4951 21.5024 94.2621 22.1311C94.0369 22.7387 93.6936 23.3075 93.4078 23.8957C93.1542 24.4178 92.9082 24.9431 92.6589 25.4669C92.6908 25.4828 92.7227 25.4988 92.7545 25.5148C93.887 24.2902 94.7905 22.9218 95.6528 21.4186ZM81.2788 29.4025C81.3024 29.4178 81.326 29.4331 81.3496 29.4485C81.5044 29.2785 81.6654 29.1131 81.8129 28.9378C82.4274 28.2071 83.0275 27.4655 83.6559 26.7455C83.8492 26.524 83.9055 26.3448 83.6662 26.1511C83.4019 25.9371 83.2495 26.1558 83.1428 26.3227C82.5347 27.2742 81.9424 28.2346 81.3482 29.1939C81.3101 29.2553 81.3012 29.3326 81.2788 29.4025Z" fill="white"/>
<path d="M141.909 29.4254C141.497 29.7669 141.151 30.0764 140.781 30.3576C139.91 31.0187 139.045 31.6891 138.141 32.3087C137.758 32.571 137.302 32.7776 136.846 32.9006C135.758 33.1941 134.624 32.508 134.49 31.4566C134.419 30.8995 134.516 30.3236 134.539 29.7563C134.541 29.7183 134.569 29.6809 134.569 29.6434C134.554 28.2382 135.644 27.3773 136.44 26.3873C136.697 26.0674 137.15 25.8484 137.559 25.6807C138.254 25.3954 138.886 25.5875 139.416 26.0809C139.716 26.3603 139.799 26.6948 139.706 27.0824C139.402 28.3595 137.868 29.7779 136.489 29.9953C136.107 30.0556 135.921 30.2001 135.891 30.5501C135.876 30.7305 135.829 30.9096 135.826 31.0898C135.812 31.8157 136.21 32.1596 136.918 31.8795C137.723 31.5607 138.509 31.1447 139.207 30.6507C141.514 29.0171 143.52 27.0813 145.368 25.0026C145.556 24.7906 145.685 24.5185 145.788 24.2559C146.074 23.5279 146.456 22.8585 147.061 22.3206C147.48 21.9485 148.526 22.2675 148.606 22.8101C148.633 22.9946 148.488 23.2292 148.361 23.4015C147.41 24.689 146.986 26.0989 147.138 27.6664C147.171 28.0032 147.264 28.0998 147.639 28.0675C152.243 27.6716 156.849 27.2901 161.455 26.914C161.824 26.8838 162.206 26.8869 162.57 26.9437C162.729 26.9686 162.858 27.1674 163 27.2872C162.835 27.3748 162.678 27.5215 162.505 27.5407C160.759 27.734 159.01 27.895 157.264 28.0875C155.064 28.33 152.866 28.5818 150.67 28.8532C149.683 28.9751 148.703 29.1477 147.723 29.3167C147.616 29.3352 147.457 29.4769 147.45 29.5694C147.364 30.7828 146.59 31.5802 145.308 31.5653C144.447 31.5552 143.568 31.4191 142.735 31.2082C141.782 30.9667 141.55 30.3945 141.909 29.4254ZM145.384 26.2929C144.398 27.2585 143.417 28.2195 142.435 29.1803C142.635 29.0249 142.908 28.8999 143.195 28.8326C143.931 28.6605 144.675 28.5216 145.411 28.3502C145.539 28.3203 145.751 28.1825 145.741 28.12C145.645 27.5117 145.51 26.9089 145.384 26.2929ZM136.79 28.5786C137.549 28.3243 138.155 27.9174 138.434 27.1818C137.613 27.3632 137.088 27.854 136.79 28.5786ZM144.278 29.9936C144.277 30.0357 144.276 30.0778 144.276 30.1199C144.873 30.2825 145.474 30.3034 146.063 30.0655C146.154 30.0286 146.191 29.8735 146.253 29.7731C146.141 29.7307 146.017 29.6366 145.917 29.6545C145.367 29.7523 144.824 29.8777 144.278 29.9936Z" fill="white"/>
</svg>
